<svg xmlns="http://www.w3.org/2000/svg" xmlns:xlink="http://www.w3.org/1999/xlink" width="16" height="16">
    <rect width="100%" height="100%" x="0" y="0" fill="none" stroke="none" />
    <g class="currentLayer">
        <g fill-rule="evenodd">
            <path d="M0.001000000000004775,0 h15.688 v15.688 H7.105427357601002e-15 z" fill="none" />
            <path d="M10.460000000000008,3.049999999999997 a1.312,1.312 0 0 0 -1.3130000000000002,-1.307 h-5.219 c-0.7230000000000004,0 -1.312,0.5870000000000004 -1.312,1.3130000000000002 v6.961 c0,0.7250000000000004 0.5840000000000004,1.31 1.307,1.3130000000000002 v-8.28 h6.536 zm-5.23,2.62 c0,-0.7250000000000004 0.5900000000000004,-1.312 1.3130000000000002,-1.312 h5.218 c0.7260000000000004,0 1.3130000000000002,0.5850000000000004 1.3130000000000002,1.312 V12.632000000000005 c0,0.7250000000000004 -0.5900000000000004,1.312 -1.3130000000000002,1.312 h-5.218 A1.312,1.312 0 0 1 5.230000000000004,12.632000000000005 v-6.962 zm1.307,-0.005000000000000004 h5.23 v6.9719999999999995 h-5.23 v-6.9719999999999995 z" />
        </g>
    </g>
</svg>