<?xml version="1.0" ?><svg version="1.1" viewBox="0 0.00799561012536287 136.761001586914 107.992004389875" xmlns="http://www.w3.org/2000/svg" xmlns:xlink="http://www.w3.org/1999/xlink"><defs><linearGradient id="def0" x1="0.500005" x2="0.500005" y1="1.64246" y2="-0.139493"><stop offset="0" stop-color="#004400"/><stop offset="0.510989" stop-color="#018C01"/><stop offset="1" stop-color="#91CD91"/></linearGradient><linearGradient id="def1" x1="-5.37426E-06" x2="0.999997" y1="0.499996" y2="0.499996"><stop offset="0" stop-color="#FFFFFF" style="stop-opacity:0.301960784313725"/><stop offset="1" stop-color="#FFFFFF" style="stop-opacity:0.2"/></linearGradient></defs><g><path d="M52.984,108L0,55.008 23.2733,31.732 52.9853,61.4427 114.432,0.00799561 136.761,22.3413 134.875,24.2267 114.432,3.77866 52.9853,65.2133 23.2733,35.5027 3.77067,55.008 54.8693,106.115 52.984,108z" fill="#006600"/><path d="M135.818,23.2845L114.433,1.89386 52.9864,63.3285 23.2731,33.6179 1.88507,55.0085 21.1731,74.2965 34.5224,87.6525 53.9264,107.058" fill="url(#def0)"/><path d="M52.9864,63.3272L23.2744,33.6179 1.8864,55.0085 21.1731,74.2965 32.1877,85.3179C47.3477,75.9739,72.5917,62.9872,101.517,58.3739L135.818,23.2845 114.433,1.89386 52.9864,63.3272z" fill="url(#def1)"/></g></svg>