<?xml version="1.0" standalone="no"?>
<!DOCTYPE svg PUBLIC "-//W3C//DTD SVG 20010904//EN"
 "http://www.w3.org/TR/2001/REC-SVG-20010904/DTD/svg10.dtd">
<svg version="1.0" xmlns="http://www.w3.org/2000/svg"
 width="16.000000pt" height="16.000000pt" viewBox="0 0 16.000000 16.000000"
 preserveAspectRatio="xMidYMid meet">
<metadata>
Created by potrace 1.11, written by Peter Selinger 2001-2013
</metadata>
<g transform="translate(0.000000,16.000000) scale(0.005333,-0.005333)"
fill="#000000" stroke="none">
<path d="M0 1500 l0 -1500 1500 0 1500 0 0 1500 0 1500 -1500 0 -1500 0 0
-1500z m867 237 c36 -20 96 -83 119 -127 27 -52 26 -172 -3 -225 -28 -53 -88
-110 -137 -130 -48 -20 -152 -21 -199 -2 -48 20 -114 82 -140 131 -30 58 -30
174 0 232 22 41 83 103 123 124 56 30 177 28 237 -3z m1653 -237 l0 -270 -265
0 -265 0 0 270 0 270 265 0 265 0 0 -270z m-1103 178 l83 -83 85 85 85 85 47
-48 48 -47 -85 -85 -85 -85 85 -85 85 -85 -48 -47 -47 -48 -85 85 -85 85 -85
-85 -85 -85 -47 48 -48 47 85 85 85 85 -85 85 -84 85 44 45 c24 25 47 45 49
45 3 0 43 -37 88 -82z"/>
</g>
</svg>
