<svg width="22" height="22" xmlns="http://www.w3.org/2000/svg">

 <g>
  <title>background</title>
  <rect fill="none" id="canvas_background" height="24" width="24" y="-1" x="-1"/>
 </g>
 <g>
  <title>Layer 1</title>
  <path id="svg_2" d="m10.938888,0.185184c3.8,0 7.3,2 9.3,5.2l-9.3,0c0,0 -0.1,0 -0.1,0c-2.5,0.1 -4.5,1.7 -5.2,4l-3,-5.3c2,-2.5 5,-3.9 8.3,-3.9zm0,14.6c-2.1,0 -3.7,-1.7 -3.7,-3.7c0,-2.1 1.7,-3.8 3.7,-3.8c2.1,0 3.7,1.7 3.7,3.7c0.1,2.1 -1.6,3.8 -3.7,3.8zm-1.8,6.9c-5.1,-0.9 -9,-5.4 -9,-10.7c0,-1.9 0.5,-3.7 1.4,-5.3l4.3,7.4c0.9,2.1 2.9,3.4 5.1,3.4c0.4,0 0.9,-0.1 1.3,-0.2l-3.1,5.4zm1.9,0.1l4.3,-7.4c0.8,-1 1.2,-2.2 1.2,-3.4c0,-1.5 -0.6,-2.9 -1.6,-3.9l6.2,0c0.5,1.2 0.7,2.6 0.7,3.9c-0.1,5.9 -4.9,10.8 -10.8,10.8z"/>
 </g>
</svg>