<?xml version="1.0" ?><!DOCTYPE svg  PUBLIC '-//W3C//DTD SVG 1.1//EN'  'http://www.w3.org/Graphics/SVG/1.1/DTD/svg11.dtd'><svg enable-background="new 0 0 24 24" height="24px" id="Layer_1" version="1.1" viewBox="0 0 24 24" width="24px" xml:space="preserve" xmlns="http://www.w3.org/2000/svg" xmlns:xlink="http://www.w3.org/1999/xlink"><path d="M12,1.2c3.8,0,7.3,2,9.3,5.2H12c0,0-0.1,0-0.1,0c-2.5,0.1-4.5,1.7-5.2,4l-3-5.3C5.7,2.6,8.7,1.2,12,1.2z M12,15.8  c-2.1,0-3.7-1.7-3.7-3.7C8.3,10,10,8.3,12,8.3c2.1,0,3.7,1.7,3.7,3.7C15.8,14.1,14.1,15.8,12,15.8z M10.2,22.7  C5.1,21.8,1.2,17.3,1.2,12c0-1.9,0.5-3.7,1.4-5.3l4.3,7.4c0.9,2.1,2.9,3.4,5.1,3.4c0.4,0,0.9-0.1,1.3-0.2L10.2,22.7z M12.1,22.8  l4.3-7.4c0.8-1,1.2-2.2,1.2-3.4c0-1.5-0.6-2.9-1.6-3.9h6.2c0.5,1.2,0.7,2.6,0.7,3.9C22.8,17.9,18,22.8,12.1,22.8z"/></svg>