<?xml version="1.0" ?><!DOCTYPE svg  PUBLIC '-//W3C//DTD SVG 1.1//EN'  'http://www.w3.org/Graphics/SVG/1.1/DTD/svg11.dtd'><svg id="Layer_1" style="enable-background:new 0 0 64 64;" version="1.1" viewBox="0 0 64 64" xml:space="preserve" xmlns="http://www.w3.org/2000/svg" xmlns:xlink="http://www.w3.org/1999/xlink"><style type="text/css">
	.st0{fill:#134563;}
</style><g><g id="Icon-Envelope" transform="translate(78.000000, 232.000000)"><path class="st0" d="M-22.5-213.2l-1.9-1.9l-17.6,17.6c-2.2,2.2-5.9,2.2-8.1,0L-67.7-215l-1.9,1.9l13.1,13.1     l-13.1,13.1l1.9,1.9l13.1-13.1l2.6,2.6c1.6,1.6,3.7,2.5,5.9,2.5s4.3-0.9,5.9-2.5l2.6-2.6l13.1,13.1l1.9-1.9l-13.1-13.1     L-22.5-213.2" id="Fill-3"/><path class="st0" d="M-26.2-181.6h-39.5c-2.3,0-4.2-1.9-4.2-4.2v-28.2c0-2.3,1.9-4.2,4.2-4.2h39.5     c2.3,0,4.2,1.9,4.2,4.2v28.2C-22-183.5-23.9-181.6-26.2-181.6L-26.2-181.6z M-65.8-215.5c-0.8,0-1.4,0.6-1.4,1.4v28.2     c0,0.8,0.6,1.4,1.4,1.4h39.5c0.8,0,1.4-0.6,1.4-1.4v-28.2c0-0.8-0.6-1.4-1.4-1.4H-65.8L-65.8-215.5z" id="Fill-4"/></g></g></svg>