<svg xmlns="http://www.w3.org/2000/svg" xmlns:xlink="http://www.w3.org/1999/xlink" version="1.1" xml:space="preserve" width="48" height="37"><rect id="backgroundrect" width="100%" height="100%" x="0" y="0" fill="none" stroke="none"/><style type="text/css">
	.st0{fill:#000000;}
</style><g class="currentLayer"><title>Layer 1</title><g id="svg_1" class=""><g id="Icon-Envelope"><path class="st0" d="M47.40000057220459,4.999999809265148 l-1.9,-1.9 l-17.6,17.6 c-2.2,2.2 -5.9,2.2 -8.1,0 L2.200000572204587,3.1999998092651367 l-1.9,1.9 l13.1,13.1 l-13.1,13.1 l1.9,1.9 l13.1,-13.1 l2.6,2.6 c1.6,1.6 3.7,2.5 5.9,2.5 s4.3,-0.9 5.9,-2.5 l2.6,-2.6 l13.1,13.1 l1.9,-1.9 l-13.1,-13.1 L47.40000057220459,4.999999809265148 " id="Fill-3"/><path class="st0" d="M43.70000057220459,36.59999980926514 h-39.5 c-2.3,0 -4.2,-1.9 -4.2,-4.2 v-28.2 c0,-2.3 1.9,-4.2 4.2,-4.2 h39.5 c2.3,0 4.2,1.9 4.2,4.2 v28.2 C47.90000057220459,34.69999980926514 46.00000057220459,36.59999980926514 43.70000057220459,36.59999980926514 L43.70000057220459,36.59999980926514 zM4.100000572204593,2.6999998092651367 c-0.8,0 -1.4,0.6000000000000002 -1.4,1.4 v28.2 c0,0.8 0.6000000000000002,1.4 1.4,1.4 h39.5 c0.8,0 1.4,-0.6000000000000002 1.4,-1.4 v-28.2 c0,-0.8 -0.6000000000000002,-1.4 -1.4,-1.4 H4.100000572204593 L4.100000572204593,2.6999998092651367 z" id="Fill-4"/></g></g></g></svg>
