<?xml version="1.0" ?><!DOCTYPE svg  PUBLIC '-//W3C//DTD SVG 1.1//EN'  'http://www.w3.org/Graphics/SVG/1.1/DTD/svg11.dtd'><svg enable-background="new 0 0 24 24" height="24px" id="Layer_1" version="1.1" viewBox="0 0 24 24" width="24px" xml:space="preserve" xmlns="http://www.w3.org/2000/svg" xmlns:xlink="http://www.w3.org/1999/xlink"><path clip-rule="evenodd" d="M22.5,14H14v8.5c0,0.276-0.224,0.5-0.5,0.5h-4C9.224,23,9,22.776,9,22.5V14H0.5  C0.224,14,0,13.776,0,13.5v-4C0,9.224,0.224,9,0.5,9H9V0.5C9,0.224,9.224,0,9.5,0h4C13.776,0,14,0.224,14,0.5V9h8.5  C22.776,9,23,9.224,23,9.5v4C23,13.776,22.776,14,22.5,14z" fill-rule="evenodd"/></svg>