<svg width="384" height="96" xmlns="http://www.w3.org/2000/svg" fill="#fcd64d">
    <g>
      <path d="m49.7,96c-27.5,0 -49.7,-21.4 -49.7,-48c0,-26.5 22.2,-48 49.7,-48c27.6,0 49.8,21.5 49.8,48c0,26.6 -22.2,48 -49.8,48z"/>
      <path d="m192,96c-27.5,0 -49.8,-21.4 -49.8,-48c0,-26.5 22.3,-48 49.8,-48c27.5,0 49.7,21.5 49.7,48c0,26.6 -22.2,48 -49.7,48z"/>
      <path d="m334.2,96c-27.5,0 -49.8,-21.4 -49.8,-48c0,-26.5 22.2,-48 49.8,-48c27.5,0 49.8,21.5 49.8,48c0,26.6 -22.2,48 -49.8,48z"/>
    </g>
  </svg>